<?xml version="1.0" encoding="utf-8"?>
<!-- Generator: Adobe Illustrator 16.0.0, SVG Export Plug-In . SVG Version: 6.00 Build 0)  -->
<!DOCTYPE svg PUBLIC "-//W3C//DTD SVG 1.1//EN" "http://www.w3.org/Graphics/SVG/1.1/DTD/svg11.dtd">
<svg version="1.1" id="Layer_1" xmlns="http://www.w3.org/2000/svg" xmlns:xlink="http://www.w3.org/1999/xlink" x="0px" y="0px"
	 width="128px" height="116px" viewBox="6.438 -9.5 128 116" enable-background="new 6.438 -9.5 128 116" xml:space="preserve">
<g>
	<path d="M45.579,77.15h-3.412v-7.855c0-1.923-0.852-2.558-1.854-2.558c-1.705,0-2.313,1.119-2.313,2.653v7.76h-3.417v-7.785
		c0-1.094,0-2.628-2.045-2.628c-1.609,0-2.124,1.119-2.124,2.529v7.884H27V64.206h3.264v1.901h0.051
		c0.439-0.85,1.391-2.241,3.679-2.241c1.883,0,2.734,0.682,3.611,2.069c0.438-0.631,1.393-2.069,3.46-2.069
		c2.537,0,4.513,1.485,4.513,4.331L45.579,77.15L45.579,77.15z"/>
	<path d="M59.158,74.62c0,1.534,0.344,1.873,0.76,2.021v0.51h-3.684c-0.197-0.607-0.244-0.802-0.32-1.531
		c-0.78,0.806-1.876,1.872-4.194,1.872c-1.951,0-3.952-1.094-3.952-3.771c0-2.529,1.616-3.82,3.783-4.135l3.073-0.464
		c0.531-0.076,1.193-0.291,1.193-1.021c0-1.436-1.365-1.511-2.245-1.511c-1.703,0-1.999,1.05-2.093,1.803h-3.296
		c0.389-3.964,3.146-4.526,5.805-4.526c1.828,0,5.169,0.563,5.169,3.747L59.158,74.62L59.158,74.62z M55.818,70.852
		c-0.344,0.265-0.903,0.489-2.314,0.704c-1.271,0.216-2.316,0.534-2.316,1.949c0,1.19,0.924,1.554,1.583,1.554
		c1.511,0,3.046-0.971,3.046-2.553V70.852L55.818,70.852z"/>
	<path d="M65.718,64.206V77.15h-3.416V64.206H65.718L65.718,64.206z M65.718,62.829h-3.416v-3.163h3.416V62.829L65.718,62.829z"/>
	<path d="M72.137,65.888h0.048c0.54-0.829,1.564-2.021,3.758-2.021c2.857,0,5.391,2.191,5.391,6.666
		c0,3.556-1.611,6.959-5.463,6.959c-1.414,0-2.929-0.51-3.754-1.966h-0.047v1.626h-3.344V59.681h3.413L72.137,65.888L72.137,65.888z
		 M74.921,66.814c-2.342,0-2.929,2.09-2.929,4.159c0,1.924,0.853,3.722,3.026,3.722c2.191,0,2.8-2.383,2.8-3.918
		C77.818,68.73,77.088,66.814,74.921,66.814L74.921,66.814z"/>
	<path d="M94.786,73.356c-0.905,3.113-3.49,4.135-5.708,4.135c-3.659,0-6.463-1.749-6.463-7.077c0-1.559,0.536-6.548,6.22-6.548
		c2.561,0,6.095,1.219,6.095,7.131v0.608h-8.9c0.098,0.973,0.294,3.162,3.049,3.162c0.952,0,1.927-0.485,2.195-1.411H94.786
		L94.786,73.356z M91.418,69.391c-0.192-2.093-1.538-2.725-2.629-2.725c-1.612,0-2.466,1.023-2.662,2.725H91.418L91.418,69.391z"/>
	<path d="M108.604,72.431c-0.123,1.338-1.168,5.061-5.926,5.061c-4.88,0-5.998-3.723-5.998-6.447c0-4.186,1.831-7.178,6.221-7.178
		c2.046,0,5.411,0.928,5.729,4.965h-3.468c-0.144-0.851-0.682-2.189-2.262-2.094c-2.147,0-2.708,2.143-2.708,3.752
		c0,1.407,0.047,4.206,2.632,4.206c1.732,0,2.316-1.654,2.316-2.265H108.604L108.604,72.431z"/>
</g>
<g>
	<g>
		<path d="M116.531,56.052c-0.592,0.574-1.302,0.86-2.131,0.86c-0.856,0-1.578-0.293-2.164-0.881
			c-0.587-0.589-0.879-1.31-0.879-2.171c0-0.892,0.315-1.632,0.949-2.224c0.594-0.552,1.294-0.828,2.094-0.828
			c0.84,0,1.556,0.298,2.152,0.896c0.595,0.593,0.892,1.314,0.892,2.155C117.443,54.728,117.142,55.459,116.531,56.052z
			 M112.623,52.108c-0.483,0.496-0.725,1.084-0.725,1.763c0,0.703,0.247,1.303,0.736,1.793c0.489,0.492,1.079,0.739,1.771,0.739
			c0.688,0,1.277-0.249,1.765-0.741c0.488-0.5,0.731-1.096,0.731-1.792c0-0.676-0.243-1.261-0.727-1.762
			c-0.492-0.502-1.082-0.757-1.77-0.757C113.708,51.353,113.113,51.606,112.623,52.108z M113.068,55.548v-3.371
			c0.207,0,0.521,0,0.938,0c0.416,0.002,0.647,0.004,0.696,0.007c0.266,0.021,0.487,0.079,0.664,0.173
			c0.3,0.169,0.449,0.437,0.449,0.81c0,0.284-0.08,0.49-0.239,0.618c-0.159,0.124-0.354,0.201-0.586,0.224
			c0.215,0.045,0.379,0.106,0.488,0.189c0.202,0.156,0.303,0.406,0.303,0.754v0.299c0,0.036,0.002,0.07,0.006,0.102
			c0.003,0.035,0.012,0.068,0.02,0.101l0.025,0.095h-0.847c-0.028-0.107-0.046-0.264-0.059-0.47
			c-0.012-0.204-0.03-0.343-0.058-0.413c-0.043-0.121-0.127-0.204-0.247-0.252c-0.066-0.027-0.168-0.044-0.304-0.054l-0.192-0.014
			h-0.187v1.202L113.068,55.548L113.068,55.548z M114.67,52.837c-0.122-0.047-0.293-0.069-0.514-0.069h-0.217v0.988h0.345
			c0.208,0,0.369-0.044,0.485-0.127c0.115-0.083,0.175-0.218,0.175-0.402C114.941,53.039,114.852,52.909,114.67,52.837z"/>
	</g>
</g>
<g>
	<path fill="#007FA3" d="M85.213,56.912c-0.001-5.017-1.973-9.498-5.144-12.753l0,0c-3.181-3.25-7.479-5.216-12.265-5.219l0,0
		c-4.786,0.003-9.083,1.969-12.265,5.219l0,0c-3.17,3.255-5.143,7.737-5.143,12.753l0,0h-10.34
		c-0.001-7.765,3.081-14.854,8.083-19.975l0,0c4.99-5.126,11.981-8.342,19.665-8.338l0,0c7.684-0.004,14.676,3.21,19.666,8.338l0,0
		c5.001,5.121,8.083,12.21,8.082,19.975l0,0H85.213L85.213,56.912z"/>
	<path fill="#007FA3" d="M72.154,56.916c-0.001-1.321-0.511-2.46-1.319-3.293l0,0c-0.819-0.827-1.852-1.294-3.033-1.299l0,0
		c-1.18,0.005-2.214,0.472-3.033,1.3l0,0c-0.808,0.832-1.318,1.971-1.319,3.292l0,0H53.11c-0.002-4.07,1.619-7.813,4.258-10.513l0,0
		c2.628-2.704,6.355-4.423,10.434-4.418l0,0c4.079-0.004,7.806,1.713,10.434,4.418l0,0c2.639,2.7,4.26,6.442,4.258,10.513l0,0l0,0
		H72.154L72.154,56.916z"/>
	<path fill="#007FA3" d="M98.27,56.912c-0.001-8.712-3.435-16.541-8.968-22.218l0,0c-5.544-5.672-13.106-9.135-21.497-9.139l0,0
		c-8.391,0.004-15.953,3.467-21.496,9.139l0,0c-5.533,5.677-8.967,13.506-8.969,22.218l0,0H27c0-11.461,4.543-21.896,11.907-29.438
		l0,0c7.353-7.547,17.609-12.26,28.898-12.258l0,0c11.288-0.002,21.545,4.71,28.897,12.258l0,0
		c7.365,7.542,11.908,17.978,11.907,29.439l0,0L98.27,56.912L98.27,56.912z"/>
</g>
</svg>
